<!-- Generated by IcoMoon.io -->
<svg id="email-icon" version="1.1" xmlns="http://www.w3.org/2000/svg" width="14" height="18" viewBox="0 0 14 18">
<path fill="#2e2f42" style="fill: var(--color4, #2e2f42)" d="M11.25 4.5h-9c-0.619 0-1.119 0.506-1.119 1.125l-0.006 6.75c0 0.619 0.506 1.125 1.125 1.125h9c0.619 0 1.125-0.506 1.125-1.125v-6.75c0-0.619-0.506-1.125-1.125-1.125zM11.025 6.891l-3.977 2.486c-0.18 0.112-0.416 0.112-0.596 0l-3.977-2.486c-0.141-0.090-0.225-0.242-0.225-0.405 0-0.377 0.411-0.602 0.731-0.405l3.769 2.357 3.769-2.357c0.321-0.197 0.731 0.028 0.731 0.405 0 0.163-0.084 0.315-0.225 0.405z"></path>
</svg>
