<!-- Generated by IcoMoon.io -->
<svg id="facebook-icon" version="1.1" xmlns="http://www.w3.org/2000/svg" width="40" height="40" viewBox="0 0 40 40">
<path fill="#4d5ae5" style="fill: var(--color1, #4d5ae5)" d="M40 20c0 5.523-2.239 10.523-5.858 14.142s-8.619 5.858-14.142 5.858c-5.523 0-10.523-2.239-14.142-5.858s-5.858-8.619-5.858-14.142c0-5.523 2.239-10.523 5.858-14.142s8.619-5.858 14.142-5.858c5.523 0 10.523 2.239 14.142 5.858s5.858 8.619 5.858 14.142z"></path>
<path fill="#f4f4fd" style="fill: var(--color2, #f4f4fd)" d="M22.665 14.657h1.461v-2.544c-0.252-0.035-1.119-0.113-2.128-0.113-2.106 0-3.549 1.325-3.549 3.759v2.241h-2.324v2.844h2.324v7.156h2.849v-7.155h2.23l0.354-2.844h-2.585v-1.959c0.001-0.822 0.222-1.385 1.367-1.385z"></path>
</svg>
