<!-- Generated by IcoMoon.io -->
<svg id="instagram-icon" version="1.1" xmlns="http://www.w3.org/2000/svg" width="40" height="40" viewBox="0 0 40 40">
<path fill="#4d5ae5" style="fill: var(--color1, #4d5ae5)" d="M40 20c0 5.523-2.239 10.523-5.858 14.142s-8.619 5.858-14.142 5.858c-5.523 0-10.523-2.239-14.142-5.858s-5.858-8.619-5.858-14.142c0-5.523 2.239-10.523 5.858-14.142s8.619-5.858 14.142-5.858c5.523 0 10.523 2.239 14.142 5.858s5.858 8.619 5.858 14.142z"></path>
<path fill="#f4f4fd" style="fill: var(--color2, #f4f4fd)" d="M27.984 16.704c-0.038-0.85-0.175-1.435-0.372-1.941-0.203-0.538-0.516-1.019-0.925-1.419-0.4-0.406-0.885-0.722-1.416-0.922-0.509-0.197-1.091-0.334-1.941-0.372-0.856-0.041-1.128-0.050-3.301-0.050s-2.444 0.009-3.297 0.047c-0.85 0.037-1.435 0.175-1.941 0.372-0.538 0.203-1.019 0.516-1.419 0.925-0.406 0.4-0.722 0.884-0.922 1.416-0.197 0.509-0.334 1.091-0.372 1.941-0.041 0.856-0.050 1.128-0.050 3.301s0.009 2.444 0.047 3.297c0.037 0.85 0.175 1.435 0.372 1.941 0.203 0.538 0.519 1.019 0.925 1.419 0.4 0.406 0.885 0.722 1.416 0.922 0.509 0.197 1.091 0.334 1.941 0.372 0.853 0.038 1.125 0.047 3.297 0.047s2.444-0.009 3.297-0.047c0.85-0.038 1.435-0.175 1.941-0.372 1.075-0.416 1.925-1.266 2.341-2.341 0.197-0.509 0.334-1.091 0.372-1.941 0.038-0.853 0.047-1.125 0.047-3.297s-0.003-2.444-0.041-3.298zM26.544 23.236c-0.034 0.781-0.166 1.203-0.275 1.485-0.269 0.697-0.822 1.25-1.519 1.519-0.281 0.109-0.706 0.241-1.485 0.275-0.844 0.038-1.097 0.047-3.232 0.047s-2.391-0.009-3.232-0.047c-0.781-0.034-1.203-0.166-1.485-0.275-0.347-0.128-0.663-0.331-0.919-0.597-0.266-0.259-0.469-0.572-0.597-0.919-0.109-0.281-0.241-0.706-0.275-1.485-0.038-0.844-0.047-1.097-0.047-3.232s0.009-2.391 0.047-3.232c0.034-0.781 0.166-1.203 0.275-1.485 0.128-0.347 0.331-0.663 0.6-0.919 0.259-0.266 0.572-0.469 0.919-0.597 0.281-0.109 0.706-0.241 1.485-0.275 0.844-0.037 1.097-0.047 3.232-0.047 2.138 0 2.391 0.009 3.232 0.047 0.781 0.034 1.203 0.166 1.485 0.275 0.347 0.128 0.663 0.331 0.919 0.597 0.266 0.259 0.469 0.572 0.597 0.919 0.109 0.281 0.241 0.706 0.275 1.485 0.038 0.844 0.047 1.097 0.047 3.232s-0.009 2.385-0.047 3.229z"></path>
<path fill="#f4f4fd" style="fill: var(--color2, #f4f4fd)" d="M20.030 15.891c-2.269 0-4.11 1.841-4.11 4.11s1.841 4.11 4.11 4.11c2.269 0 4.11-1.841 4.11-4.11s-1.841-4.11-4.11-4.11zM20.030 22.668c-1.472 0-2.666-1.194-2.666-2.666s1.194-2.666 2.666-2.666c1.472 0 2.666 1.194 2.666 2.666s-1.194 2.666-2.666 2.666z"></path>
<path fill="#f4f4fd" style="fill: var(--color2, #f4f4fd)" d="M25.262 15.729c0 0.53-0.43 0.96-0.96 0.96s-0.96-0.43-0.96-0.96c0-0.53 0.43-0.959 0.96-0.959s0.96 0.429 0.96 0.959z"></path>
</svg>
