<!-- Generated by IcoMoon.io -->
<svg id="linkedn-icon" version="1.1" xmlns="http://www.w3.org/2000/svg" width="40" height="40" viewBox="0 0 40 40">
<path fill="#4d5ae5" style="fill: var(--color1, #4d5ae5)" d="M40 20c0 5.523-2.239 10.523-5.858 14.142s-8.619 5.858-14.142 5.858c-5.523 0-10.523-2.239-14.142-5.858s-5.858-8.619-5.858-14.142c0-5.523 2.239-10.523 5.858-14.142s8.619-5.858 14.142-5.858c5.523 0 10.523 2.239 14.142 5.858s5.858 8.619 5.858 14.142z"></path>
<path fill="#f4f4fd" style="fill: var(--color2, #f4f4fd)" d="M27.996 28v-0.001h0.004v-5.868c0-2.871-0.618-5.082-3.974-5.082-1.613 0-2.696 0.885-3.138 1.725h-0.047v-1.457h-3.182v10.682h3.313v-5.289c0-1.393 0.264-2.739 1.989-2.739 1.699 0 1.725 1.589 1.725 2.829v5.201h3.31z"></path>
<path fill="#f4f4fd" style="fill: var(--color2, #f4f4fd)" d="M12.264 17.318h3.317v10.682h-3.317v-10.682z"></path>
<path fill="#f4f4fd" style="fill: var(--color2, #f4f4fd)" d="M13.921 12c-1.061 0-1.921 0.861-1.921 1.921s0.861 1.939 1.921 1.939 1.921-0.879 1.921-1.939c-0.001-1.061-0.861-1.921-1.921-1.921v0z"></path>
</svg>
