<!-- Generated by IcoMoon.io -->
<svg id="phone-icon" version="1.1" xmlns="http://www.w3.org/2000/svg" width="14" height="18" viewBox="0 0 14 18">
<path fill="#2e2f42" style="fill: var(--color4, #2e2f42)" d="M11.045 10.399l-1.379-0.157c-0.331-0.038-0.657 0.076-0.89 0.309l-0.999 0.999c-1.536-0.782-2.795-2.035-3.577-3.577l1.004-1.004c0.233-0.233 0.347-0.559 0.309-0.89l-0.157-1.368c-0.065-0.548-0.526-0.961-1.080-0.961h-0.939c-0.613 0-1.124 0.51-1.086 1.124 0.288 4.635 3.995 8.337 8.624 8.624 0.613 0.038 1.124-0.472 1.124-1.085v-0.939c0.005-0.548-0.407-1.009-0.955-1.075z"></path>
</svg>
